<svg fill="#000000" version="1.1" id="Capa_1" xmlns="http://www.w3.org/2000/svg" xmlns:xlink="http://www.w3.org/1999/xlink" viewBox="0 0 588.599 588.6" xml:space="preserve"><g id="SVGRepo_bgCarrier" stroke-width="0"></g><g  id="SVGRepo_tracerCarrier" stroke-linecap="round" stroke-linejoin="round"></g><g id="SVGRepo_iconCarrier"> <g transform="scale(1)"> <path d="M162.896,253.826c-5.898,0.166-9.218,0.765-10.963,1.145v30.623l9.532-0.063c12.248-0.076,19.602-6.518,19.602-16.445 C181.061,258.665,174.192,253.657,162.896,253.826z"></path> <path d="M539.573,49.204h-178.2c-0.791,0-1.561,0.076-2.342,0.124V0L11.227,46.417V540.98L359.031,588.6v-50.814 c0.781,0.053,1.551,0.116,2.342,0.116h178.2c20.841,0,37.8-16.965,37.8-37.8V86.999C577.373,66.16,560.414,49.204,539.573,49.204z M91.642,329.39c6.636,0.169,14.08-1.229,18.501-3.032l3.407,19.105c-4.153,2.078-13.382,4.092-25.197,3.602 c-32.432-1.334-48.497-23.862-48.497-52.821c0-34.691,22.069-54.983,50.646-56.257c11.422-0.509,20.229,1.656,24.237,3.726 l-4.596,19.482c-4.569-1.943-10.842-3.673-18.646-3.451c-17.134,0.498-30.127,12.081-30.127,35.1 C61.37,315.584,72.415,328.904,91.642,329.39z M184.522,351.332c-1.825-3.264-4.448-12.619-7.728-26.636 c-2.932-14.117-7.628-17.999-17.571-18.235l-7.301-0.053v43.621l-23.343-0.928V241.534c7.488-1.625,18.808-3.088,31.596-3.66 c16.129-0.707,27.656,1.324,35.667,7.457c6.755,5.223,10.491,13.144,10.491,23.767c0,14.734-10.325,24.859-20.002,28.429v0.506 c7.836,3.243,12.21,10.916,15.077,21.526c3.565,13.073,7.146,28.255,9.374,32.812L184.522,351.332z M291.971,355.609 l-11.625-22.476c-4.72-8.569-7.718-14.913-11.259-21.943l-0.375-0.005c-2.597,6.95-5.746,13.142-9.622,21.421L248.885,353.9 l-30.833-1.234l34.646-58.994l-33.426-57.509l31.065-1.34l10.784,21.437c3.7,7.222,6.474,13.065,9.456,19.815l0.372-0.014 c2.998-7.765,5.435-13.207,8.641-20.318l10.861-22.646l34.125-1.477l-37.199,61.259l39.214,64.111L291.971,355.609z M555.773,500.102c0,8.933-7.268,16.199-16.2,16.199h-178.2c-0.802,0-1.571-0.11-2.342-0.231v-97.775 c12.478,6.592,26.156,11.196,40.68,13.2c11.87-19.254,22.918-39.023,34.783-59.653c-3.586,0.189-5.357,0.2-7.108,0.39 c-30.501,3.207-52.818-8.005-68.354-33.744v-61.62c12.604-23.316,35.807-35.411,63.197-34.565 c33.813,1.031,67.689,0.221,101.524,0.108c-22.006-35.931-61.636-59.967-106.782-59.967c-20.914,0-40.61,5.208-57.939,14.333 V71.046c0.771-0.114,1.54-0.243,2.342-0.243h178.2c8.933,0,16.2,7.27,16.2,16.2V500.102z"></path> <path d="M526.378,257.001c-14.955,0.983-30.017,0.253-45.035,0.253c-5.4,0-10.8,0-17.719,0 c23.92,30.198,24.068,58.783,5.342,89.211c-16.774,27.269-31.909,55.54-47.666,83.437c66.999-2.289,120.814-57.48,120.814-125.028 c0-16.77-3.333-32.759-9.34-47.387C530.998,257.001,528.899,256.832,526.378,257.001z"></path> <path d="M464.205,304.504c-0.211-25.64-21.979-47.081-47.598-46.87c-25.629,0.222-47.071,21.998-46.865,47.604 c0.211,25.629,21.99,47.07,47.604,46.859C442.995,351.886,464.416,330.133,464.205,304.504z"></path> </g> </g></svg>
