<svg fill="#000000" viewBox="0 0 32 32" version="1.1" xmlns="http://www.w3.org/2000/svg">
    <g id="SVGRepo_bgCarrier" stroke-width="0"></g>
    <g id="SVGRepo_tracerCarrier" stroke-linecap="round" stroke-linejoin="round"></g>
    <g id="SVGRepo_iconCarrier">
        <title>etc</title>
        <path
            transform="translate(7, 0)"
            d="M5.5 16c0-1.5-1.25-2.75-2.75-2.75-1.531 0-2.75 1.25-2.75 2.75s1.219 2.75 2.75 2.75c1.5 0 2.75-1.25 2.75-2.75zM13.938 16c0-1.5-1.25-2.75-2.75-2.75s-2.75 1.25-2.75 2.75 1.25 2.75 2.75 2.75 2.75-1.25 2.75-2.75zM22.406 16c0-1.5-1.219-2.75-2.75-2.75-1.5 0-2.75 1.25-2.75 2.75s1.25 2.75 2.75 2.75c1.531 0 2.75-1.25 2.75-2.75z">
        </path>
    </g>
</svg>