<svg xmlns="http://www.w3.org/2000/svg" xmlns:xlink="http://www.w3.org/1999/xlink" version="1.1" id="Layer_1" x="0px"
    y="0px" width="100%" viewBox="0 0 1024 597" enable-background="new 0 0 1024 597" xml:space="preserve">
    <path fill="#B5B7BB" opacity="1.000000" stroke="none"
        d=" M530.036865,33.918335   C549.224121,36.400867 568.448181,38.636757 587.580872,41.485641   C595.385803,42.647800 602.992798,45.138893 610.779907,47.649174   C603.838013,52.121658 596.115112,55.104702 589.943665,60.031265   C581.644592,66.656258 573.447021,73.204224 564.180969,78.490158   C557.952148,82.043449 552.347107,86.675369 546.353149,90.659531   C540.290039,94.689659 534.133118,98.583450 527.938538,102.409538   C523.462341,105.174301 518.801880,107.640808 514.326050,110.406082   C510.172882,112.971939 506.155518,115.757599 502.195953,118.368965   C503.343994,120.221382 504.177338,121.566025 504.572144,122.972946   C480.881744,125.543388 457.794861,128.933365 435.178619,135.128448   C402.464203,144.089645 371.466797,156.751999 343.434448,176.214172   C328.565857,186.537064 315.315521,198.595383 304.173950,212.745789   C293.620758,226.148926 286.182861,241.324234 281.850189,257.824036   C280.718140,254.539459 278.786835,254.702225 276.691895,256.166809   C271.290710,259.942871 266.058716,263.967346 260.582031,267.627625   C248.846985,275.470642 236.951584,283.073669 225.211716,290.909607   C211.065521,300.351685 197.027283,309.955353 182.907013,319.436493   C180.032486,321.366608 176.848999,322.858398 174.078873,324.916870   C170.233154,327.774536 166.643417,330.976746 162.944092,334.031433   C155.132431,319.276703 149.499969,303.821381 147.910004,286.252075   C147.980591,284.610504 147.992432,283.802216 148.139648,282.683716   C150.335968,280.017395 152.068985,277.219543 154.525345,275.396057   C159.832336,271.456421 165.543503,268.065674 171.029984,264.362457   C183.837769,255.717575 196.556381,246.939560 209.413239,238.368637   C221.463776,230.335266 234.416336,223.722336 245.352783,213.922134   C250.186829,209.590317 256.518738,206.948685 262.096832,203.423004   C267.051636,200.291306 272.002045,197.135376 276.775940,193.739334   C281.957520,190.053299 286.756134,185.811966 292.040741,182.291687   C299.525757,177.305634 307.387146,172.887558 314.927094,167.979980   C320.394470,164.421417 325.487579,160.288361 330.950531,156.722382   C339.703674,151.008698 348.697327,145.663544 357.451172,139.950912   C363.930267,135.722733 370.093658,131.011047 376.569244,126.777130   C386.643372,120.190361 396.959503,113.970551 406.965393,107.284439   C410.164062,105.147026 412.436920,101.635643 415.613220,99.450363   C419.641571,96.678902 424.267792,94.794128 428.440491,92.210831   C435.013153,88.141685 441.481720,83.896049 447.881165,79.558174   C452.393799,76.499283 456.594940,72.974251 461.153503,69.991028   C470.680725,63.756165 480.455597,57.897099 489.933624,51.590416   C498.243256,46.061222 505.505890,38.912270 515.284729,35.678604   C516.379578,35.316586 517.117859,33.876411 518.021484,32.936230   C520.058472,32.958603 522.095398,32.980980 524.638855,33.405533   C526.775818,33.844585 528.406372,33.881462 530.036865,33.918335  z" />
    <path fill="#BABCBF" opacity="1.000000" stroke="none"
        d=" M517.699036,32.678242   C517.117859,33.876411 516.379578,35.316586 515.284729,35.678604   C505.505890,38.912270 498.243256,46.061222 489.933624,51.590416   C480.455597,57.897099 470.680725,63.756165 461.153503,69.991028   C456.594940,72.974251 452.393799,76.499283 447.881165,79.558174   C441.481720,83.896049 435.013153,88.141685 428.440491,92.210831   C424.267792,94.794128 419.641571,96.678902 415.613220,99.450363   C412.436920,101.635643 410.164062,105.147026 406.965393,107.284439   C396.959503,113.970551 386.643372,120.190361 376.569244,126.777130   C370.093658,131.011047 363.930267,135.722733 357.451172,139.950912   C348.697327,145.663544 339.703674,151.008698 330.950531,156.722382   C325.487579,160.288361 320.394470,164.421417 314.927094,167.979980   C307.387146,172.887558 299.525757,177.305634 292.040741,182.291687   C286.756134,185.811966 281.957520,190.053299 276.775940,193.739334   C272.002045,197.135376 267.051636,200.291306 262.096832,203.423004   C256.518738,206.948685 250.186829,209.590317 245.352783,213.922134   C234.416336,223.722336 221.463776,230.335266 209.413239,238.368637   C196.556381,246.939560 183.837769,255.717575 171.029984,264.362457   C165.543503,268.065674 159.832336,271.456421 154.525345,275.396057   C152.068985,277.219543 150.335968,280.017395 147.875839,282.682739   C147.128967,282.983063 146.781281,282.974182 146.433578,282.965271   C146.300613,281.249451 146.167664,279.533630 146.269028,277.238831   C146.200272,276.105774 145.897217,275.551697 145.594177,274.997589   C145.484055,266.968658 145.373947,258.939728 145.642242,250.378448   C146.039719,248.908295 146.058792,247.970490 146.077850,247.032700   C146.125626,245.302643 146.173401,243.572586 146.628082,241.327957   C147.318970,239.794327 147.602936,238.775269 147.886902,237.756210   C148.257141,234.445038 148.627380,231.133881 149.431000,227.405212   C150.898819,225.867981 152.163635,224.883789 152.918900,223.599869   C154.418213,221.051010 154.966385,217.447021 157.089325,215.847961   C165.483414,209.525330 174.257370,203.691788 183.052399,197.923813   C186.852264,195.431778 191.329712,193.932053 194.991364,191.280136   C199.950836,187.688339 204.414810,183.413773 209.104095,179.447189   C217.361618,172.462296 227.992111,169.466629 236.492798,162.515427   C242.332275,157.740356 247.615845,150.737656 256.522827,150.589401   C256.925110,150.582703 257.328827,150.041733 257.714111,149.727814   C264.150391,144.483826 270.436798,139.041092 277.063721,134.050491   C282.520355,129.941223 288.294250,126.231201 294.078674,122.583931   C306.262115,114.901894 318.672516,107.572899 330.730316,99.701538   C336.389771,96.007042 343.400696,93.913414 346.877869,87.276970   C347.188354,86.684402 348.310333,86.522552 349.048859,86.147705   C351.003082,85.155838 353.047882,84.304306 354.886475,83.130409   C358.892334,80.572754 362.730804,77.751297 366.754883,75.224258   C370.107117,73.119133 373.755463,71.473473 377.043060,69.280212   C382.688202,65.514221 388.072418,61.357178 393.717194,57.590668   C400.208832,53.259090 407.447845,49.838776 413.249054,44.752907   C417.287445,41.212505 421.344330,39.712917 426.249146,38.803432   C427.678680,38.538357 428.769897,36.448807 430.016174,35.195545   C430.761047,35.134617 431.505920,35.073696 432.689331,35.376930   C435.567291,37.986435 437.073700,37.094643 438.010834,34.288780   C440.699127,34.165455 443.387390,34.042130 446.711487,34.190636   C448.233551,34.054459 449.119843,33.646454 450.006104,33.238445   C452.367371,33.129791 454.728638,33.021141 457.760010,33.208054   C459.953583,33.119335 461.477081,32.735054 463.000549,32.350777   C481.125885,32.373940 499.251251,32.397099 517.699036,32.678242  z" />
    <path fill="#185FAE" opacity="1.000000" stroke="none"
        d=" M738.479004,445.842957   C746.194153,458.620270 753.966858,471.363251 761.611877,484.182404   C775.554993,507.562256 789.429077,530.983398 803.309814,554.400391   C804.454834,556.331970 805.431458,558.363281 806.805237,560.948364   C804.366211,561.055786 802.763306,561.187317 801.160217,561.188232   C760.722900,561.211548 720.285339,561.162170 679.848694,561.332153   C676.147522,561.347656 674.025635,560.280579 672.556519,556.989929   C670.798523,553.052429 668.724365,549.256042 666.820679,544.679565   C666.275085,543.307312 665.695984,542.654053 665.116882,542.000793   C663.682922,539.449219 662.249023,536.897583 660.839966,533.633789   C660.267761,532.273376 659.670715,531.625244 659.073608,530.977173   C658.675903,530.299500 658.278198,529.621826 657.915649,528.227051   C656.627991,525.340027 655.305298,523.170105 653.982605,521.000183   C653.982605,521.000183 653.760071,520.839294 653.855957,520.308105   C655.150269,517.836365 656.055359,515.614319 657.599121,514.005005   C663.539978,507.811920 669.754700,501.882477 675.733337,495.724640   C681.002319,490.297821 686.097839,484.702423 691.260193,479.172363   C694.856018,475.320526 698.358337,471.378052 702.039673,467.610168   C707.854370,461.658783 713.730164,455.764587 719.683105,449.951630   C724.099243,445.639404 727.585266,439.808533 734.961060,440.012573   C735.335327,440.457275 735.709656,440.901978 735.816772,441.856384   C734.528748,445.207855 736.088379,445.875458 738.479004,445.842957  z" />
    <path fill="#BEC1C4" opacity="1.000000" stroke="none"
        d=" M429.593201,35.144325   C428.769897,36.448807 427.678680,38.538357 426.249146,38.803432   C421.344330,39.712917 417.287445,41.212505 413.249054,44.752907   C407.447845,49.838776 400.208832,53.259090 393.717194,57.590668   C388.072418,61.357178 382.688202,65.514221 377.043060,69.280212   C373.755463,71.473473 370.107117,73.119133 366.754883,75.224258   C362.730804,77.751297 358.892334,80.572754 354.886475,83.130409   C353.047882,84.304306 351.003082,85.155838 349.048859,86.147705   C348.310333,86.522552 347.188354,86.684402 346.877869,87.276970   C343.400696,93.913414 336.389771,96.007042 330.730316,99.701538   C318.672516,107.572899 306.262115,114.901894 294.078674,122.583931   C288.294250,126.231201 282.520355,129.941223 277.063721,134.050491   C270.436798,139.041092 264.150391,144.483826 257.714111,149.727814   C257.328827,150.041733 256.925110,150.582703 256.522827,150.589401   C247.615845,150.737656 242.332275,157.740356 236.492798,162.515427   C227.992111,169.466629 217.361618,172.462296 209.104095,179.447189   C204.414810,183.413773 199.950836,187.688339 194.991364,191.280136   C191.329712,193.932053 186.852264,195.431778 183.052399,197.923813   C174.257370,203.691788 165.483414,209.525330 157.089325,215.847961   C154.966385,217.447021 154.418213,221.051010 152.918900,223.599869   C152.163635,224.883789 150.898819,225.867981 149.505585,227.000336   C153.454773,206.800980 161.903549,188.360535 172.956177,171.004913   C185.556671,151.218704 201.509369,134.468918 219.210632,119.235298   C235.384766,105.315926 253.027481,93.441208 271.723816,83.382904   C301.033295,67.614906 331.742371,55.115475 364.335449,47.695721   C377.908966,44.605728 391.445496,41.328060 405.086792,38.570702   C413.024597,36.966206 421.136627,36.223549 429.593201,35.144325  z" />
    <path fill="#1E64B5" opacity="1.000000" stroke="none"
        d=" M545.298950,489.073212   C545.298950,512.828552 545.298950,536.583862 545.298950,561.183838   C506.892792,561.183838 468.905975,561.183838 430.459930,560.641479   C430.002502,557.733521 430.004303,555.367981 430.339539,552.951538   C430.450653,551.932983 430.228363,550.965271 430.004761,549.529419   C430.004364,542.708252 430.005249,536.355347 430.355042,529.963135   C435.672089,524.913635 440.589905,519.851868 445.638824,514.924438   C447.155731,513.444031 449.917969,512.685608 450.586243,510.994415   C452.533386,506.066925 455.919434,506.194031 460.169922,506.755066   C462.587891,507.074219 465.163666,506.197449 467.668396,505.859253   C467.607025,505.489655 467.545624,505.120026 467.484253,504.750427   C464.460236,504.427917 461.436218,504.105377 457.319702,503.666351   C461.132812,500.549347 463.868958,498.312683 466.853241,495.873230   C467.687622,497.375549 468.416748,498.688354 468.885376,499.532135   C471.050507,499.324829 473.029877,498.495605 474.264771,499.125610   C480.275238,502.191986 486.394318,500.147583 489.729370,493.007355   C485.676331,493.488495 481.984039,493.261414 480.762299,488.640900   C480.706421,488.429504 479.154022,488.613800 477.853729,488.613800   C478.547638,490.490845 479.080933,491.933380 479.574677,493.268982   C475.924133,493.268982 472.554443,493.268982 469.184753,493.268982   C471.197479,490.690094 474.653717,489.570312 475.332642,487.527496   C476.992615,482.532623 478.906799,479.713257 485.457062,483.450928   C482.724884,478.498077 483.310944,475.927094 486.900452,472.752869   C491.338776,468.828033 499.727509,468.296997 499.405975,459.752289   C499.397614,459.529083 499.837158,459.285889 500.072845,459.057190   C504.199585,455.053375 508.270569,450.988983 512.496582,447.092773   C513.486267,446.180328 514.980774,445.368683 516.278320,445.311676   C523.137268,445.010254 530.014343,445.086090 536.866089,444.695648   C537.857788,444.639130 539.725830,442.493530 539.525208,441.786804   C538.135437,436.891479 541.432800,436.550262 544.783203,436.437927   C545.039307,454.285950 545.169128,471.679565 545.298950,489.073212  M511.550385,464.731110   C512.533325,464.645416 513.516235,464.559753 514.943726,464.435333   C510.100891,459.876190 507.660400,460.002319 503.811462,464.438507   C506.114319,464.438507 508.477509,464.438507 511.550385,464.731110  M434.458740,541.043457   C435.741577,541.598328 437.024384,542.153198 438.307190,542.708069   C438.606750,542.428772 438.906311,542.149475 439.205872,541.870117   C438.140991,540.462524 437.232391,538.872131 435.922058,537.751404   C435.492920,537.384399 434.020050,538.237732 433.024506,538.532959   C433.269226,539.346436 433.513947,540.159851 434.458740,541.043457  M447.181824,525.968201   C447.359406,525.365540 447.537018,524.762878 447.714630,524.160217   C445.610779,524.520752 443.506927,524.881226 441.403076,525.241760   C441.503784,525.792603 441.604492,526.343506 441.705200,526.894348   C443.285034,526.615601 444.864868,526.336853 447.181824,525.968201  M493.872925,484.655548   C492.679230,484.823029 491.485535,484.990540 490.291840,485.158020   C490.542877,485.810364 490.793915,486.462708 491.044952,487.115082   C491.944519,486.516205 492.844116,485.917358 493.872925,484.655548  M472.696320,504.021027   C473.235199,504.649780 473.774109,505.278503 474.312958,505.907227   C474.806854,505.402771 475.300720,504.898315 475.794617,504.393860   C474.932465,504.105225 474.070343,503.816589 472.696320,504.021027  M456.724884,514.119080   C456.532562,513.575256 456.340240,513.031433 456.147919,512.487610   C455.869080,512.615051 455.590240,512.742493 455.311371,512.869873   C455.637421,513.429626 455.963470,513.989441 456.724884,514.119080  z" />
    <path fill="#AEAFB4" opacity="1.000000" stroke="none"
        d=" M505.010681,122.910675   C504.177338,121.566025 503.343994,120.221382 502.195953,118.368965   C506.155518,115.757599 510.172882,112.971939 514.326050,110.406082   C518.801880,107.640808 523.462341,105.174301 527.938538,102.409538   C534.133118,98.583450 540.290039,94.689659 546.353149,90.659531   C552.347107,86.675369 557.952148,82.043449 564.180969,78.490158   C573.447021,73.204224 581.644592,66.656258 589.943665,60.031265   C596.115112,55.104702 603.838013,52.121658 611.024048,47.905777   C612.515564,47.712627 613.852905,47.886684 615.647949,48.492374   C617.598389,51.723179 619.662659,51.542870 621.978638,50.050678   C645.132874,55.976490 667.428223,64.193283 688.781982,75.652252   C685.716309,78.380737 682.628845,80.583916 679.463135,82.668213   C674.102295,86.197823 668.585144,89.499786 663.330994,93.179237   C657.549866,97.227806 652.177185,101.876541 646.289917,105.752480   C638.591370,110.820923 630.435303,115.196869 622.768555,120.309418   C620.927185,121.537315 620.239380,124.495178 618.615356,126.716797   C601.232544,125.206223 584.280762,122.794495 567.271790,122.281830   C546.543213,121.657051 525.766541,122.629227 505.010681,122.910675  z" />
    <path fill="#1B61B1" opacity="1.000000" stroke="none"
        d=" M734.939819,439.657166   C727.585266,439.808533 724.099243,445.639404 719.683105,449.951630   C713.730164,455.764587 707.854370,461.658783 702.039673,467.610168   C698.358337,471.378052 694.856018,475.320526 691.260193,479.172363   C686.097839,484.702423 681.002319,490.297821 675.733337,495.724640   C669.754700,501.882477 663.539978,507.811920 657.599121,514.005005   C656.055359,515.614319 655.150269,517.836365 653.887634,520.174500   C648.780212,511.355194 643.714844,502.150391 638.701172,492.917511   C634.971802,486.049835 631.309448,479.145782 627.253296,471.747681   C624.526672,466.274872 622.164062,461.312256 619.964783,456.011139   C625.468140,449.616425 630.616943,443.377380 636.193787,437.547760   C644.151733,429.229095 652.445923,421.232910 660.549561,413.052490   C663.763977,409.807556 666.863037,406.447815 669.996216,403.122955   C673.399048,399.511932 676.780396,395.880646 680.576172,392.275635   C690.603149,396.371033 700.224915,400.448914 709.901428,404.847107   C717.803101,410.902252 723.230347,418.638367 727.967712,426.945068   C730.284729,431.063965 732.601685,435.182861 734.939819,439.657166  z" />
    <path fill="#B0B2B6" opacity="1.000000" stroke="none"
        d=" M162.996094,334.385986   C166.643417,330.976746 170.233154,327.774536 174.078873,324.916870   C176.848999,322.858398 180.032486,321.366608 182.907013,319.436493   C197.027283,309.955353 211.065521,300.351685 225.211716,290.909607   C236.951584,283.073669 248.846985,275.470642 260.582031,267.627625   C266.058716,263.967346 271.290710,259.942871 276.691895,256.166809   C278.786835,254.702225 280.718140,254.539459 281.838226,258.240051   C279.458405,271.066132 279.096863,283.396576 281.149048,295.670471   C282.132538,301.552795 284.343292,307.229919 285.652283,312.965485   C283.810181,311.981140 282.314026,311.031311 280.958099,310.170532   C276.511322,313.553314 272.486816,317.026794 268.070038,319.896515   C255.447128,328.097961 242.737366,336.164612 230.402222,344.799927   C227.991272,346.487793 225.737961,348.423798 223.230423,349.946442   C215.478027,354.653687 207.581543,359.124725 199.854797,363.872681   C195.749542,366.395294 191.879547,369.300751 187.903351,372.033356   C181.468857,363.086456 174.921967,354.217224 168.660141,345.151062   C166.433243,341.926910 164.898697,338.224579 162.996094,334.385986  z" />
    <path fill="#ACADB2" opacity="1.000000" stroke="none"
        d=" M188.004028,372.302399   C191.879547,369.300751 195.749542,366.395294 199.854797,363.872681   C207.581543,359.124725 215.478027,354.653687 223.230423,349.946442   C225.737961,348.423798 227.991272,346.487793 230.402222,344.799927   C242.737366,336.164612 255.447128,328.097961 268.070038,319.896515   C272.486816,317.026794 276.511322,313.553314 280.958099,310.170532   C282.314026,311.031311 283.810181,311.981140 285.828949,313.282471   C290.607117,321.621765 294.595459,329.768158 299.210419,337.542603   C302.384369,342.889557 306.427612,347.720490 309.848083,353.094299   C302.956757,356.761047 296.046539,359.703979 289.719482,363.595184   C284.278046,366.941681 279.698517,371.661926 274.380432,375.244049   C268.253662,379.370880 260.587799,381.828888 255.689209,386.999908   C250.140152,392.857544 243.289078,396.162781 236.897949,400.281494   C232.717270,402.975769 228.691177,405.045532 227.753372,410.360596   C224.841385,408.250519 221.688751,406.401398 219.063416,403.980469   C211.766586,397.251709 204.688950,390.285217 197.228088,382.900543   C196.330017,381.913086 195.728592,381.437744 195.127151,380.962402   C194.162262,379.863983 193.197388,378.765594 192.079590,377.039429   C190.990601,375.595520 190.054535,374.779327 189.118469,373.963135   C188.780548,373.499237 188.442627,373.035339 188.004028,372.302399  z" />
    <path fill="#A7A8AD" opacity="1.000000" stroke="none"
        d=" M619.020996,126.657440   C620.239380,124.495178 620.927185,121.537315 622.768555,120.309418   C630.435303,115.196869 638.591370,110.820923 646.289917,105.752480   C652.177185,101.876541 657.549866,97.227806 663.330994,93.179237   C668.585144,89.499786 674.102295,86.197823 679.463135,82.668213   C682.628845,80.583916 685.716309,78.380737 689.013733,75.894852   C699.169739,80.743301 709.494629,85.370743 719.041870,91.259041   C730.019653,98.029671 740.309265,105.915955 750.630005,113.644272   C747.346863,115.022369 744.100159,115.665565 741.367249,117.215042   C736.517334,119.964775 731.980652,123.266624 727.310303,126.333542   C718.739746,131.961594 710.098633,137.487274 701.664551,143.312927   C700.289062,144.263031 699.825256,146.532974 698.573486,148.128891   C674.254700,138.442398 649.612915,131.330627 623.965027,127.424438   C623.266541,127.126114 622.620422,127.095505 621.599243,127.072624   C620.489746,126.939392 619.755432,126.798424 619.020996,126.657440  z" />
    <path fill="#A7A8AD" opacity="1.000000" stroke="none"
        d=" M227.875626,410.662476   C228.691177,405.045532 232.717270,402.975769 236.897949,400.281494   C243.289078,396.162781 250.140152,392.857544 255.689209,386.999908   C260.587799,381.828888 268.253662,379.370880 274.380432,375.244049   C279.698517,371.661926 284.278046,366.941681 289.719482,363.595184   C296.046539,359.703979 302.956757,356.761047 310.138855,353.271057   C314.073761,356.521362 317.253754,360.184631 320.938751,363.238434   C330.210052,370.921600 339.709351,378.329742 348.685944,385.894684   C346.146393,386.200500 343.644714,385.823273 342.003174,386.837769   C336.965668,389.951019 332.241516,393.575165 327.427856,397.045471   C324.399292,399.228882 321.529510,401.649078 318.398438,403.668335   C316.100464,405.150238 313.359253,405.941956 311.050720,407.410828   C304.500519,411.578552 298.067383,415.930542 291.594879,420.220123   C284.784668,424.733582 277.982208,429.258728 271.861755,433.323578   C273.054138,436.301025 274.013641,438.696930 274.973145,441.092834   C266.235321,436.121124 257.293213,431.470398 248.822144,426.079529   C241.599457,421.483093 234.918488,416.035492 227.875626,410.662476  z" />
    <path fill="#929199" opacity="1.000000" stroke="none"
        d=" M728.243713,426.756470   C723.230347,418.638367 717.803101,410.902252 710.174194,404.580078   C716.408813,400.486725 722.535889,397.155914 728.420715,393.441223   C744.997192,382.977661 759.031616,369.894043 770.146790,353.593262   C778.280884,341.664215 783.593994,328.585693 788.266235,314.937988   C789.650452,313.461700 790.719177,312.050110 791.706848,310.583954   C792.983643,308.688660 793.797974,306.234375 795.503906,304.918213   C803.154541,299.015564 810.859985,293.136322 818.962524,287.892883   C821.785156,286.066223 824.897400,281.684204 829.343018,285.567596   C828.952209,299.999969 823.930603,313.212555 818.348938,326.211884   C805.431824,356.294739 785.424866,381.091797 760.506714,401.976990   C750.208557,410.608429 739.203369,418.396332 728.243713,426.756470  z" />
    <path fill="#A3A3A9" opacity="1.000000" stroke="none"
        d=" M275.197083,441.351196   C274.013641,438.696930 273.054138,436.301025 271.861755,433.323578   C277.982208,429.258728 284.784668,424.733582 291.594879,420.220123   C298.067383,415.930542 304.500519,411.578552 311.050720,407.410828   C313.359253,405.941956 316.100464,405.150238 318.398438,403.668335   C321.529510,401.649078 324.399292,399.228882 327.427856,397.045471   C332.241516,393.575165 336.965668,389.951019 342.003174,386.837769   C343.644714,385.823273 346.146393,386.200500 348.666016,385.906677   C349.077393,385.872162 349.086548,385.875366 349.084381,386.181885   C349.726257,386.647583 350.370270,386.806702 351.359772,387.016937   C359.968628,391.631927 368.180328,396.292969 376.512909,400.726776   C382.426605,403.873474 388.503510,406.713440 394.131805,409.865753   C390.286072,411.976624 386.741180,413.790649 383.363220,415.875153   C377.926910,419.229858 372.571716,422.718933 367.235718,426.232422   C360.948883,430.372040 354.812561,434.747467 348.437195,438.743378   C342.456757,442.491730 336.163879,445.741394 330.180603,449.485596   C327.438599,451.201447 325.389191,454.218201 322.514191,455.472992   C319.622742,456.734924 318.708649,458.277222 318.993713,461.069214   C310.868652,457.852692 302.637177,454.876740 294.651672,451.344727   C288.089874,448.442413 281.820190,444.879608 275.197083,441.351196  z" />
    <path fill="#94949D" opacity="1.000000" stroke="none"
        d=" M619.801453,456.349670   C622.164062,461.312256 624.526672,466.274872 626.940552,471.589783   C615.491211,474.974701 604.098755,478.537781 592.463379,480.908875   C577.087219,484.042328 561.520813,486.241852 545.667542,488.958008   C545.169128,471.679565 545.039307,454.285950 544.992920,436.387177   C545.076233,435.882050 545.503174,435.915253 545.933350,435.922424   C565.793579,434.911957 585.223633,433.894379 604.989502,433.012054   C606.089111,434.199860 606.927124,435.206848 607.604614,436.312286   C611.690613,442.978882 615.739868,449.668060 619.801453,456.349670  z" />
    <path fill="#9F9FA5" opacity="1.000000" stroke="none"
        d=" M319.242249,461.232666   C318.708649,458.277222 319.622742,456.734924 322.514191,455.472992   C325.389191,454.218201 327.438599,451.201447 330.180603,449.485596   C336.163879,445.741394 342.456757,442.491730 348.437195,438.743378   C354.812561,434.747467 360.948883,430.372040 367.235718,426.232422   C372.571716,422.718933 377.926910,419.229858 383.363220,415.875153   C386.741180,413.790649 390.286072,411.976624 394.479645,409.885345   C399.174835,411.281372 403.065979,413.100616 407.136017,414.325195   C413.981049,416.384735 420.939758,418.066406 427.922119,420.372009   C427.938873,424.888794 427.884155,428.940613 427.437958,432.984070   C423.570526,432.188202 419.788635,430.309387 418.302765,435.866150   C418.137299,436.484924 416.594177,436.664093 415.788544,437.196350   C413.504120,438.705566 411.257263,440.272980 409.022675,441.855682   C407.684631,442.803406 406.516907,444.075500 405.064789,444.762482   C400.662689,446.844971 396.034973,448.476349 391.730957,450.733215   C387.581482,452.909058 383.688934,455.588989 379.762054,458.167084   C378.537354,458.971161 377.624878,460.234833 376.470398,461.165192   C374.071075,463.098938 371.680786,465.060303 369.142914,466.800476   C367.188477,468.140564 365.014282,469.160126 362.982330,470.297302   C364.215515,472.667297 365.104004,474.374878 365.992493,476.082489   C352.563690,472.056946 339.134918,468.031403 325.270386,463.532867   C323.798645,462.744110 322.762604,462.428314 321.726593,462.112518   C320.981323,461.873718 320.236053,461.634918 319.242249,461.232666  z" />
    <path fill="#A3A3A9" opacity="1.000000" stroke="none"
        d=" M698.940063,148.192902   C699.825256,146.532974 700.289062,144.263031 701.664551,143.312927   C710.098633,137.487274 718.739746,131.961594 727.310303,126.333542   C731.980652,123.266624 736.517334,119.964775 741.367249,117.215042   C744.100159,115.665565 747.346863,115.022369 750.801758,113.942001   C764.497925,124.217590 776.940613,135.379700 787.325623,148.728577   C781.550110,151.936890 775.838501,154.503418 770.599121,157.816849   C763.120850,162.546234 755.907227,167.712769 748.790894,172.976913   C747.640625,173.827850 747.579895,176.151672 746.704590,177.702515   C734.526550,167.108246 721.064941,159.050293 706.937134,151.568878   C706.089172,150.876740 705.306458,150.529282 704.181396,150.191132   C702.206116,149.531265 700.573059,148.862091 698.940063,148.192902  z" />
    <path fill="#9F9FA5" opacity="1.000000" stroke="none"
        d=" M747.015503,177.794662   C747.579895,176.151672 747.640625,173.827850 748.790894,172.976913   C755.907227,167.712769 763.120850,162.546234 770.599121,157.816849   C775.838501,154.503418 781.550110,151.936890 787.416565,149.041748   C799.267090,162.086945 809.037659,176.245819 815.590698,192.623474   C812.569214,193.717422 809.517761,193.821304 807.371338,195.267929   C797.408386,201.982651 787.696350,209.069611 777.605896,215.852509   C769.140442,201.514175 759.688538,188.366302 747.015503,177.794662  z" />
    <path fill="#9A99A0" opacity="1.000000" stroke="none"
        d=" M366.311310,476.275940   C365.104004,474.374878 364.215515,472.667297 362.982330,470.297302   C365.014282,469.160126 367.188477,468.140564 369.142914,466.800476   C371.680786,465.060303 374.071075,463.098938 376.470398,461.165192   C377.624878,460.234833 378.537354,458.971161 379.762054,458.167084   C383.688934,455.588989 387.581482,452.909058 391.730957,450.733215   C396.034973,448.476349 400.662689,446.844971 405.064789,444.762482   C406.516907,444.075500 407.684631,442.803406 409.022675,441.855682   C411.257263,440.272980 413.504120,438.705566 415.788544,437.196350   C416.594177,436.664093 418.137299,436.484924 418.302765,435.866150   C419.788635,430.309387 423.570526,432.188202 427.549805,433.235687   C428.135284,433.659393 428.217499,433.823151 428.215393,434.448975   C428.099274,446.358185 428.002838,457.805664 428.061218,469.252380   C428.093262,475.531616 428.386383,481.809540 428.364990,488.099304   C428.168213,488.110565 427.791809,487.993652 427.791809,487.993652   C412.120697,485.320770 396.449585,482.647919 380.347717,479.573212   C379.278503,479.113159 378.639984,479.054993 378.001495,478.996796   C374.211029,478.154327 370.420563,477.311859 366.311310,476.275940  z" />
    <path fill="#9A99A0" opacity="1.000000" stroke="none"
        d=" M777.894409,216.023300   C787.696350,209.069611 797.408386,201.982651 807.371338,195.267929   C809.517761,193.821304 812.569214,193.717422 815.625732,192.990814   C817.425354,196.243851 818.803040,199.501099 820.152222,203.470886   C820.686096,204.790939 821.248413,205.398468 821.810730,206.005997   C827.671448,220.832932 830.920715,236.230148 831.447876,252.453003   C829.670776,248.148300 828.328735,243.517426 826.825134,238.329422   C827.603210,238.292252 826.843506,238.097168 826.393250,238.385483   C821.303772,241.644119 816.496216,245.441742 811.134766,248.146774   C806.613403,250.428009 805.148132,256.210968 799.727905,257.144775   C796.813354,257.646851 793.937866,258.375946 790.918457,258.630249   C790.030701,254.517349 789.608582,250.667282 788.443359,247.057068   C785.087708,236.660599 781.432129,226.360962 777.894409,216.023300  z" />
    <path fill="#94949D" opacity="1.000000" stroke="none"
        d=" M791.044800,259.002655   C793.937866,258.375946 796.813354,257.646851 799.727905,257.144775   C805.148132,256.210968 806.613403,250.428009 811.134766,248.146774   C816.496216,245.441742 821.303772,241.644119 826.393250,238.385483   C826.843506,238.097168 827.603210,238.292252 826.825134,238.329422   C828.328735,243.517426 829.670776,248.148300 831.371094,252.887360   C831.149963,263.700043 830.570618,274.404510 829.667175,285.338318   C824.897400,281.684204 821.785156,286.066223 818.962524,287.892883   C810.859985,293.136322 803.154541,299.015564 795.503906,304.918213   C793.797974,306.234375 792.983643,308.688660 791.706848,310.583954   C790.719177,312.050110 789.650452,313.461700 788.245483,314.526306   C791.277771,299.625671 792.134338,284.859375 792.357544,269.991852   C793.807434,268.634766 796.043335,266.565735 795.735168,266.066193   C794.710205,264.404724 792.771179,263.307129 791.096436,261.625854   C791.021790,260.506470 791.033264,259.754578 791.044800,259.002655  z" />
    <path fill="#256ABE" opacity="1.000000" stroke="none"
        d=" M430.006104,553.002380   C430.004303,555.367981 430.002502,557.733521 430.000000,560.542114   C429.357208,559.438354 428.165436,557.895020 428.155548,556.344177   C428.012115,533.867432 428.027191,511.389679 427.898071,488.452911   C427.791809,487.993652 428.168213,488.110565 428.700012,488.224884   C429.488281,489.921539 429.959015,491.502747 429.967194,493.086365   C430.030396,505.391449 430.004486,517.697021 430.006104,530.002441   C430.005249,536.355347 430.004364,542.708252 430.002716,549.904968   C430.003326,551.500000 430.004730,552.251160 430.006104,553.002380  z" />
    <path fill="#1B61B1" opacity="1.000000" stroke="none"
        d=" M654.011780,521.352539   C655.305298,523.170105 656.627991,525.340027 657.916321,527.918091   C656.601624,526.119202 655.321289,523.912048 654.011780,521.352539  z" />
    <path fill="#B5B7BB" opacity="1.000000" stroke="none"
        d=" M621.752930,49.779091   C619.662659,51.542870 617.598389,51.723179 616.043945,48.583557   C617.830566,48.664577 619.678894,49.086040 621.752930,49.779091  z" />
    <path fill="#BEC1C4" opacity="1.000000" stroke="none"
        d=" M437.650024,34.236870   C437.073700,37.094643 435.567291,37.986435 433.063110,35.401382   C434.428650,34.769440 435.858948,34.477200 437.650024,34.236870  z" />
    <path fill="#1B61B1" opacity="1.000000" stroke="none"
        d=" M738.428711,445.507019   C736.088379,445.875458 734.528748,445.207855 735.837524,442.154449   C736.876343,443.018921 737.627380,444.095001 738.428711,445.507019  z" />
    <path fill="#BEC1C4" opacity="1.000000" stroke="none"
        d=" M462.627319,32.255478   C461.477081,32.735054 459.953583,33.119335 458.203308,33.226234   C459.402374,32.685959 460.828247,32.423069 462.627319,32.255478  z" />
    <path fill="#BABCBF" opacity="1.000000" stroke="none"
        d=" M529.766479,33.662601   C528.406372,33.881462 526.775818,33.844585 525.071655,33.464405   C526.497375,33.216354 527.996704,33.311611 529.766479,33.662601  z" />
    <path fill="#BEC1C4" opacity="1.000000" stroke="none"
        d=" M189.133820,374.294800   C190.054535,374.779327 190.990601,375.595520 191.933228,376.757416   C191.009598,376.277588 190.079391,375.452026 189.133820,374.294800  z" />
    <path fill="#BEC1C4" opacity="1.000000" stroke="none"
        d=" M146.336151,283.300110   C146.781281,282.974182 147.128967,282.983063 147.740479,282.992920   C147.992432,283.802216 147.980591,284.610504 147.922928,285.825439   C147.330994,285.366333 146.784866,284.500641 146.336151,283.300110  z" />
    <path fill="#BEC1C4" opacity="1.000000" stroke="none"
        d=" M449.677185,33.167053   C449.119843,33.646454 448.233551,34.054459 447.160583,34.201973   C447.765381,33.659542 448.556824,33.377602 449.677185,33.167053  z" />
    <path fill="#BEC1C4" opacity="1.000000" stroke="none"
        d=" M145.825653,247.244781   C146.058792,247.970490 146.039719,248.908295 145.755112,249.923874   C145.517517,249.153397 145.545486,248.305145 145.825653,247.244781  z" />
    <path fill="#BEC1C4" opacity="1.000000" stroke="none"
        d=" M147.572937,237.891357   C147.602936,238.775269 147.318970,239.794327 146.727982,240.907532   C146.700302,240.009949 146.979645,239.018219 147.572937,237.891357  z" />
    <path fill="#A3A3A9" opacity="1.000000" stroke="none"
        d=" M321.917969,462.376007   C322.762604,462.428314 323.798645,462.744110 324.917999,463.389954   C324.037354,463.359833 323.073334,462.999664 321.917969,462.376007  z" />
    <path fill="#9F9FA5" opacity="1.000000" stroke="none"
        d=" M821.821167,205.680573   C821.248413,205.398468 820.686096,204.790939 820.163208,203.821930   C820.745728,204.092010 821.288696,204.723587 821.821167,205.680573  z" />
    <path fill="#1B61B1" opacity="1.000000" stroke="none"
        d=" M665.120483,542.336975   C665.695984,542.654053 666.275085,543.307312 666.797119,544.338684   C666.201355,544.035645 665.662720,543.354370 665.120483,542.336975  z" />
    <path fill="#1B61B1" opacity="1.000000" stroke="none"
        d=" M659.093506,531.314575   C659.670715,531.625244 660.267761,532.273376 660.819153,533.301697   C660.220093,533.005249 659.666748,532.328613 659.093506,531.314575  z" />
    <path fill="#9F9FA5" opacity="1.000000" stroke="none"
        d=" M378.177063,479.227417   C378.639984,479.054993 379.278503,479.113159 379.963745,479.435913   C379.457855,479.619690 378.905212,479.538879 378.177063,479.227417  z" />
    <path fill="#BEC1C4" opacity="1.000000" stroke="none"
        d=" M145.464539,275.260651   C145.897217,275.551697 146.200272,276.105774 146.306122,276.807343   C145.850906,276.477783 145.592911,276.000732 145.464539,275.260651  z" />
    <path fill="#BEC1C4" opacity="1.000000" stroke="none"
        d=" M195.142426,381.277954   C195.728592,381.437744 196.330017,381.913086 196.961884,382.704254   C196.380783,382.544556 195.769241,382.069031 195.142426,381.277954  z" />
    <path fill="#FDFEFE" opacity="1.000000" stroke="none"
        d=" M791.978027,269.998932   C792.134338,284.859375 791.277771,299.625671 787.893921,314.566711   C783.593994,328.585693 778.280884,341.664215 770.146790,353.593262   C759.031616,369.894043 744.997192,382.977661 728.420715,393.441223   C722.535889,397.155914 716.408813,400.486725 710.119507,404.259766   C700.224915,400.448914 690.603149,396.371033 680.329895,392.052185   C676.815002,390.758759 673.951599,389.706299 670.049255,388.271973   C671.747375,387.665680 672.297485,387.358704 672.879028,387.277832   C687.868164,385.192993 702.038513,380.483612 715.407410,373.506256   C739.947937,360.698425 757.252441,341.608490 765.417114,314.802673   C771.309265,295.457642 771.885864,275.725464 768.592163,255.969467   C765.518555,237.533249 757.990356,221.062317 744.066895,207.608673   C727.635986,191.569656 708.251160,181.948654 685.807739,177.817017   C685.086914,177.526733 684.540222,177.464096 683.648254,177.235641   C682.544739,177.022049 681.786438,176.974274 680.791992,176.703339   C679.702393,176.417831 678.848999,176.355484 677.579529,176.153595   C660.109192,175.682892 643.054932,175.351715 625.540100,174.924881   C559.545044,174.829239 494.010468,174.829239 428.116119,174.829239   C428.116119,177.631042 428.116302,179.604736 428.116119,181.578415   C428.109161,258.862335 428.104126,336.146240 428.084930,413.430176   C428.084381,415.589142 427.932159,417.748077 427.850647,419.907043   C420.939758,418.066406 413.981049,416.384735 407.136017,414.325195   C403.065979,413.100616 399.174835,411.281372 394.855408,409.709900   C388.503510,406.713440 382.426605,403.873474 376.512909,400.726776   C368.180328,396.292969 359.968628,391.631927 351.192261,386.778931   C350.148376,386.285034 349.617462,386.080200 349.086548,385.875366   C349.086548,385.875366 349.077393,385.872162 349.097290,385.860168   C339.709351,378.329742 330.210052,370.921600 320.938751,363.238434   C317.253754,360.184631 314.073761,356.521362 310.373077,352.958832   C306.427612,347.720490 302.384369,342.889557 299.210419,337.542603   C294.595459,329.768158 290.607117,321.621765 286.174896,313.317017   C284.343292,307.229919 282.132538,301.552795 281.149048,295.670471   C279.096863,283.396576 279.458405,271.066132 282.127167,258.439423   C286.182861,241.324234 293.620758,226.148926 304.173950,212.745789   C315.315521,198.595383 328.565857,186.537064 343.434448,176.214172   C371.466797,156.751999 402.464203,144.089645 435.178619,135.128448   C457.794861,128.933365 480.881744,125.543388 504.572144,122.972946   C525.766541,122.629227 546.543213,121.657051 567.271790,122.281830   C584.280762,122.794495 601.232544,125.206223 618.615356,126.716812   C619.755432,126.798424 620.489746,126.939392 621.778442,127.301605   C622.894287,127.579277 623.455872,127.635712 624.017395,127.692146   C649.612915,131.330627 674.254700,138.442398 698.573486,148.128906   C700.573059,148.862091 702.206116,149.531265 704.323242,150.493378   C705.539001,151.162064 706.270691,151.537811 707.002380,151.913574   C721.064941,159.050293 734.526550,167.108246 746.704590,177.702515   C759.688538,188.366302 769.140442,201.514175 777.605896,215.852509   C781.432129,226.360962 785.087708,236.660599 788.443359,247.057068   C789.608582,250.667282 790.030701,254.517349 790.918457,258.630249   C791.033264,259.754578 791.021790,260.506470 791.029968,262.031342   C791.359131,265.202515 791.668579,267.600708 791.978027,269.998932  z" />
    <path fill="#2166B9" opacity="1.000000" stroke="none"
        d=" M430.355042,529.963135   C430.004486,517.697021 430.030396,505.391449 429.967194,493.086365   C429.959015,491.502747 429.488281,489.921539 428.896790,488.213623   C428.386383,481.809540 428.093262,475.531616 428.061218,469.252380   C428.002838,457.805664 428.099274,446.358185 428.575897,434.331604   C429.347137,431.370087 429.675140,428.988220 429.999573,426.605865   C430.502594,422.912231 431.003174,419.218231 431.504761,415.524384   C432.002838,415.510162 432.500885,415.495911 432.998962,415.481689   C432.007935,414.414581 431.016907,413.347473 429.340912,411.542847   C439.284637,411.625854 442.214752,403.634735 448.193390,399.529144   C447.963806,398.999481 447.734222,398.469788 447.504608,397.940125   C444.502289,397.637421 441.499969,397.334747 437.174957,396.898712   C441.377777,393.881287 444.883118,391.364624 448.989410,388.416534   C450.654694,389.581177 452.890472,391.144806 455.428558,392.919861   C456.492279,392.114258 457.779968,391.368774 458.778625,390.342194   C462.688263,386.323212 467.392395,382.723846 470.106110,377.995605   C472.743774,373.399811 474.991974,369.269867 480.409210,367.839142   C480.573303,367.795807 480.604523,367.249329 480.741730,366.790039   C479.915527,365.544922 479.040436,364.226074 477.447540,361.825500   C480.907379,361.825500 483.744873,362.602417 485.683838,361.614960   C487.775085,360.549927 489.025513,357.833771 490.629242,355.854553   C489.106110,354.482544 487.717834,353.231995 485.530945,351.262054   C488.244446,351.142029 489.971252,351.426086 491.432556,350.929169   C494.928925,349.740356 498.655243,348.696564 501.627197,346.638824   C504.919769,344.359131 507.597931,341.126984 510.330780,338.116394   C518.069031,329.591583 525.439819,320.714325 533.492615,312.502838   C536.932007,308.995728 541.704956,306.796448 546.008118,304.454803   C546.144348,311.154022 546.144348,317.401367 546.144348,324.117157   C550.613953,324.117157 554.238342,324.177399 557.860291,324.107391   C581.234863,323.655701 604.608887,323.175537 627.987732,323.106232   C626.993713,325.470764 626.311096,327.704926 624.917786,329.329468   C623.108032,331.439545 620.548523,332.891296 618.633362,334.928772   C610.487183,343.595184 602.667847,352.577728 594.333130,361.055481   C585.237488,370.307281 575.671448,379.095154 566.375183,388.151672   C560.929871,393.456543 555.512390,398.798492 550.308655,404.336365   C549.107483,405.614655 548.832642,407.763397 547.796082,409.663361   C546.697632,410.861664 545.286804,411.901215 545.275452,412.955872   C545.192932,420.607269 545.392761,428.261749 545.503174,435.915253   C545.503174,435.915253 545.076233,435.882050 544.866577,435.932800   C541.432800,436.550262 538.135437,436.891479 539.525208,441.786804   C539.725830,442.493530 537.857788,444.639130 536.866089,444.695648   C530.014343,445.086090 523.137268,445.010254 516.278320,445.311676   C514.980774,445.368683 513.486267,446.180328 512.496582,447.092773   C508.270569,450.988983 504.199585,455.053375 500.072845,459.057190   C499.837158,459.285889 499.397614,459.529083 499.405975,459.752289   C499.727509,468.296997 491.338776,468.828033 486.900452,472.752869   C483.310944,475.927094 482.724884,478.498077 485.457062,483.450928   C478.906799,479.713257 476.992615,482.532623 475.332642,487.527496   C474.653717,489.570312 471.197479,490.690094 469.184753,493.268982   C472.554443,493.268982 475.924133,493.268982 479.574677,493.268982   C479.080933,491.933380 478.547638,490.490845 477.853729,488.613800   C479.154022,488.613800 480.706421,488.429504 480.762299,488.640900   C481.984039,493.261414 485.676331,493.488495 489.729370,493.007355   C486.394318,500.147583 480.275238,502.191986 474.264771,499.125610   C473.029877,498.495605 471.050507,499.324829 468.885376,499.532135   C468.416748,498.688354 467.687622,497.375549 466.853241,495.873230   C463.868958,498.312683 461.132812,500.549347 457.319702,503.666351   C461.436218,504.105377 464.460236,504.427917 467.484253,504.750427   C467.545624,505.120026 467.607025,505.489655 467.668396,505.859253   C465.163666,506.197449 462.587891,507.074219 460.169922,506.755066   C455.919434,506.194031 452.533386,506.066925 450.586243,510.994415   C449.917969,512.685608 447.155731,513.444031 445.638824,514.924438   C440.589905,519.851868 435.672089,524.913635 430.355042,529.963135  z" />
    <path fill="#2166B9" opacity="1.000000" stroke="none"
        d=" M511.195557,464.584808   C508.477509,464.438507 506.114319,464.438507 503.811462,464.438507   C507.660400,460.002319 510.100891,459.876190 514.943726,464.435333   C513.516235,464.559753 512.533325,464.645416 511.195557,464.584808  z" />
    <path fill="#2166B9" opacity="1.000000" stroke="none"
        d=" M434.108704,541.008423   C433.513947,540.159851 433.269226,539.346436 433.024506,538.532959   C434.020050,538.237732 435.492920,537.384399 435.922058,537.751404   C437.232391,538.872131 438.140991,540.462524 439.205872,541.870117   C438.906311,542.149475 438.606750,542.428772 438.307190,542.708069   C437.024384,542.153198 435.741577,541.598328 434.108704,541.008423  z" />
    <path fill="#2166B9" opacity="1.000000" stroke="none"
        d=" M446.813293,526.013184   C444.864868,526.336853 443.285034,526.615601 441.705200,526.894348   C441.604492,526.343506 441.503784,525.792603 441.403076,525.241760   C443.506927,524.881226 445.610779,524.520752 447.714600,524.160217   C447.537018,524.762878 447.359406,525.365540 446.813293,526.013184  z" />
    <path fill="#2166B9" opacity="1.000000" stroke="none"
        d=" M493.808289,484.987000   C492.844116,485.917358 491.944519,486.516205 491.044952,487.115082   C490.793915,486.462708 490.542877,485.810364 490.291840,485.158020   C491.485535,484.990540 492.679230,484.823029 493.808289,484.987000  z" />
    <path fill="#2166B9" opacity="1.000000" stroke="none"
        d=" M472.952271,503.774506   C474.070343,503.816589 474.932465,504.105225 475.794617,504.393860   C475.300720,504.898315 474.806854,505.402771 474.312988,505.907227   C473.774109,505.278503 473.235199,504.649780 472.952271,503.774506  z" />
    <path fill="#2166B9" opacity="1.000000" stroke="none"
        d=" M430.339539,552.951538   C430.004730,552.251160 430.003326,551.500000 430.004028,550.373169   C430.228363,550.965271 430.450653,551.932983 430.339539,552.951538  z" />
    <path fill="#2166B9" opacity="1.000000" stroke="none"
        d=" M456.507202,514.334106   C455.963470,513.989441 455.637421,513.429626 455.311371,512.869873   C455.590240,512.742493 455.869080,512.615051 456.147919,512.487610   C456.340240,513.031433 456.532562,513.575256 456.507202,514.334106  z" />
    <path fill="#1E64B5" opacity="1.000000" stroke="none"
        d=" M548.131592,409.511597   C548.832642,407.763397 549.107483,405.614655 550.308655,404.336365   C555.512390,398.798492 560.929871,393.456543 566.375183,388.151672   C575.671448,379.095154 585.237488,370.307281 594.333130,361.055481   C602.667847,352.577728 610.487183,343.595184 618.633362,334.928772   C620.548523,332.891296 623.108032,331.439545 624.917786,329.329468   C626.311096,327.704926 626.993713,325.470764 628.244385,322.888428   C638.851990,318.542053 646.053833,311.742523 649.547852,300.954773   C652.009216,298.661163 654.050415,296.328491 656.277954,294.189911   C662.447021,288.267120 668.851013,282.580475 674.856506,276.498688   C679.113159,272.187927 682.717407,267.239075 686.890991,262.838837   C692.992126,256.406403 699.328430,250.196396 705.590027,243.917084   C714.760132,234.721130 723.843140,225.433853 733.194763,216.425919   C736.511169,213.231339 740.505310,210.740311 744.190063,207.928101   C757.990356,221.062317 765.518555,237.533249 768.592163,255.969467   C771.885864,275.725464 771.309265,295.457642 765.417114,314.802673   C757.252441,341.608490 739.947937,360.698425 715.407410,373.506256   C702.038513,380.483612 687.868164,385.192993 672.879028,387.277832   C672.297485,387.358704 671.747375,387.665680 670.049255,388.271973   C673.951599,389.706299 676.815002,390.758759 679.924805,392.034698   C676.780396,395.880646 673.399048,399.511932 669.996216,403.122955   C666.863037,406.447815 663.763977,409.807556 660.549561,413.052490   C652.445923,421.232910 644.151733,429.229095 636.193787,437.547760   C630.616943,443.377380 625.468140,449.616425 619.964783,456.011139   C615.739868,449.668060 611.690613,442.978882 607.604614,436.312286   C606.927124,435.206848 606.089111,434.199860 604.956970,432.687988   C603.196960,429.989471 601.951294,427.642334 600.388977,425.529388   C592.725342,415.165100 583.460144,408.207642 569.490967,409.578156   C562.441223,410.269775 555.255737,409.577881 548.131592,409.511597  z" />
    <path fill="#AEAFB4" opacity="1.000000" stroke="none"
        d=" M623.965027,127.424438   C623.455872,127.635712 622.894287,127.579277 622.153564,127.293869   C622.620422,127.095505 623.266541,127.126114 623.965027,127.424438  z" />
    <path fill="#A7A8AD" opacity="1.000000" stroke="none"
        d=" M349.084381,386.181885   C349.617462,386.080200 350.148376,386.285034 350.846802,386.727844   C350.370270,386.806702 349.726257,386.647583 349.084381,386.181885  z" />
    <path fill="#FBFCFE" opacity="1.000000" stroke="none"
        d=" M547.796082,409.663330   C555.255737,409.577881 562.441223,410.269775 569.490967,409.578156   C583.460144,408.207642 592.725342,415.165100 600.388977,425.529388   C601.951294,427.642334 603.196960,429.989471 604.621216,432.552704   C585.223633,433.894379 565.793579,434.911957 545.933350,435.922424   C545.392761,428.261749 545.192932,420.607269 545.275452,412.955872   C545.286804,411.901215 546.697632,410.861664 547.796082,409.663330  z" />
    <path fill="#256ABE" opacity="1.000000" stroke="none"
        d=" M545.871887,304.002930   C541.704956,306.796448 536.932007,308.995728 533.492615,312.502838   C525.439819,320.714325 518.069031,329.591583 510.330780,338.116394   C507.597931,341.126984 504.919769,344.359131 501.627197,346.638824   C498.655243,348.696564 494.928925,349.740356 491.432556,350.929169   C489.971252,351.426086 488.244446,351.142029 485.530945,351.262054   C487.717834,353.231995 489.106110,354.482544 490.629242,355.854553   C489.025513,357.833771 487.775085,360.549927 485.683838,361.614960   C483.744873,362.602417 480.907379,361.825500 477.447540,361.825500   C479.040436,364.226074 479.915527,365.544922 480.741730,366.790039   C480.604523,367.249329 480.573303,367.795807 480.409210,367.839142   C474.991974,369.269867 472.743774,373.399811 470.106110,377.995605   C467.392395,382.723846 462.688263,386.323212 458.778625,390.342194   C457.779968,391.368774 456.492279,392.114258 455.428558,392.919861   C452.890472,391.144806 450.654694,389.581177 448.989410,388.416534   C444.883118,391.364624 441.377777,393.881287 437.174957,396.898712   C441.499969,397.334747 444.502289,397.637421 447.504608,397.940125   C447.734222,398.469788 447.963806,398.999481 448.193390,399.529144   C442.214752,403.634735 439.284637,411.625854 429.340912,411.542847   C431.016907,413.347473 432.007935,414.414581 432.998962,415.481689   C432.500885,415.495911 432.002838,415.510162 431.504761,415.524384   C431.003174,419.218231 430.502594,422.912231 429.999573,426.605865   C429.675140,428.988220 429.347137,431.370087 428.660217,433.869537   C428.217499,433.823151 428.135284,433.659393 427.941284,433.244019   C427.884155,428.940613 427.938873,424.888794 427.922119,420.372009   C427.932159,417.748077 428.084381,415.589142 428.084930,413.430176   C428.104126,336.146240 428.109161,258.862335 428.116119,181.578415   C428.116302,179.604736 428.116119,177.631042 428.116119,174.829239   C494.010468,174.829239 559.545044,174.829239 625.535645,175.290741   C625.071411,177.256302 624.410461,179.024017 623.190735,180.223541   C611.326355,191.891144 599.310730,203.405380 587.495056,215.121445   C585.558350,217.041824 584.404175,219.744751 582.849548,222.059952   C582.129211,223.132706 581.346741,224.167892 580.537903,225.176361   C578.749512,227.406189 576.926575,229.608307 575.145081,231.788223   C572.912598,233.508682 570.479187,235.083878 568.409729,237.043350   C564.482544,240.761734 560.758118,244.694611 556.960571,248.549393   C554.315308,251.234512 549.700500,252.668915 550.610596,257.996216   C546.650574,257.714478 546.233215,259.786011 546.226807,262.712341   C546.196655,276.476044 546.005554,290.239410 545.871887,304.002930  M436.096741,400.254303   C431.886139,400.784302 431.655029,402.644073 434.037506,406.568512   C434.794403,404.795807 435.105042,404.053223 435.427917,403.315918   C435.807800,402.448425 436.198212,401.585571 436.096741,400.254303  M475.119232,362.274872   C474.575256,362.467285 474.031250,362.659668 473.487274,362.852051   C473.614746,363.130951 473.742249,363.409851 473.869720,363.688721   C474.429626,363.362610 474.989563,363.036469 475.119232,362.274872  z" />
    <path fill="#A7A8AD" opacity="1.000000" stroke="none"
        d=" M706.937134,151.568878   C706.270691,151.537811 705.539001,151.162064 704.665527,150.484070   C705.306458,150.529282 706.089172,150.876740 706.937134,151.568878  z" />
    <path fill="#9A99A0" opacity="1.000000" stroke="none"
        d=" M792.357544,269.991852   C791.668579,267.600708 791.359131,265.202515 791.116089,262.398804   C792.771179,263.307129 794.710205,264.404724 795.735168,266.066193   C796.043335,266.565735 793.807434,268.634766 792.357544,269.991852  z" />
    <path fill="#2166B9" opacity="1.000000" stroke="none"
        d=" M551.002991,257.877563   C549.700500,252.668915 554.315308,251.234512 556.960571,248.549393   C560.758118,244.694611 564.482544,240.761734 568.409729,237.043350   C570.479187,235.083878 572.912598,233.508682 575.145081,231.788223   C576.926575,229.608307 578.749512,227.406189 580.537903,225.176361   C581.346741,224.167892 582.129211,223.132706 582.849548,222.059952   C584.404175,219.744751 585.558350,217.041824 587.495056,215.121445   C599.310730,203.405380 611.326355,191.891144 623.190735,180.223541   C624.410461,179.024017 625.071411,177.256302 625.996155,175.386383   C643.054932,175.351715 660.109192,175.682892 677.644714,176.459305   C679.093323,176.911865 680.060730,176.919189 681.028137,176.926514   C681.786438,176.974274 682.544739,177.022049 683.698181,177.494934   C684.722839,177.961563 685.352295,178.003113 685.981812,178.044647   C708.251160,181.948654 727.635986,191.569656 744.066895,207.608688   C740.505310,210.740311 736.511169,213.231339 733.194763,216.425919   C723.843140,225.433853 714.760132,234.721130 705.590027,243.917084   C699.328430,250.196396 692.992126,256.406403 686.890991,262.838837   C682.717407,267.239075 679.113159,272.187927 674.856506,276.498688   C668.851013,282.580475 662.447021,288.267120 656.277954,294.189911   C654.050415,296.328491 652.009216,298.661163 649.510925,300.539612   C652.910217,280.342194 646.962830,264.044434 624.952881,258.430756   C624.242371,258.166443 623.582581,258.183502 622.463013,258.274170   C620.186829,258.305298 618.370544,258.238159 616.553894,258.224304   C600.703430,258.103180 584.852905,257.991608 568.958679,257.527222   C567.751770,256.168243 566.588623,255.159241 565.425476,254.150238   C564.949219,255.392548 564.472961,256.634857 563.545044,257.988586   C559.063293,258.025818 555.033142,257.951691 551.002991,257.877563  z" />
    <path fill="#256ABE" opacity="1.000000" stroke="none"
        d=" M680.791992,176.703354   C680.060730,176.919189 679.093323,176.911865 678.060730,176.598846   C678.848999,176.355484 679.702393,176.417831 680.791992,176.703354  z" />
    <path fill="#256ABE" opacity="1.000000" stroke="none"
        d=" M685.807739,177.817017   C685.352295,178.003113 684.722839,177.961563 684.043396,177.660736   C684.540222,177.464096 685.086914,177.526733 685.807739,177.817017  z" />
    <path fill="#FBFCFE" opacity="1.000000" stroke="none"
        d=" M569.002441,257.877197   C584.852905,257.991608 600.703430,258.103180 616.553894,258.224304   C618.370544,258.238159 620.186829,258.305298 622.663452,258.481934   C623.883606,258.648163 624.443665,258.680176 625.003662,258.712158   C646.962830,264.044434 652.910217,280.342194 649.175720,300.589111   C646.053833,311.742523 638.851990,318.542053 628.239746,322.486938   C604.608887,323.175537 581.234863,323.655701 557.860291,324.107391   C554.238342,324.177399 550.613953,324.117157 546.144348,324.117157   C546.144348,317.401367 546.144348,311.154022 546.008118,304.454773   C546.005554,290.239410 546.196655,276.476044 546.226807,262.712341   C546.233215,259.786011 546.650574,257.714478 550.610596,257.996216   C555.033142,257.951691 559.063293,258.025818 563.951294,258.106934   C566.206848,258.035004 567.604675,257.956085 569.002441,257.877197  z" />
    <path fill="#2166B9" opacity="1.000000" stroke="none"
        d=" M436.340393,400.487488   C436.198212,401.585571 435.807800,402.448425 435.427917,403.315918   C435.105042,404.053223 434.794403,404.795807 434.037506,406.568512   C431.655029,402.644073 431.886139,400.784302 436.340393,400.487488  z" />
    <path fill="#2166B9" opacity="1.000000" stroke="none"
        d=" M475.334351,362.492615   C474.989563,363.036469 474.429626,363.362610 473.869720,363.688721   C473.742249,363.409851 473.614746,363.130951 473.487274,362.852051   C474.031250,362.659668 474.575256,362.467285 475.334351,362.492615  z" />
    <path fill="#256ABE" opacity="1.000000" stroke="none"
        d=" M568.958679,257.527222   C567.604675,257.956085 566.206848,258.035004 564.402893,257.995544   C564.472961,256.634857 564.949219,255.392548 565.425476,254.150238   C566.588623,255.159241 567.751770,256.168243 568.958679,257.527222  z" />
    <path fill="#256ABE" opacity="1.000000" stroke="none"
        d=" M624.952881,258.430786   C624.443665,258.680176 623.883606,258.648163 623.123169,258.408356   C623.582581,258.183502 624.242371,258.166443 624.952881,258.430786  z" />
</svg>